<svg width="86" height="96" viewBox="0 0 86 96" fill="none" xmlns="http://www.w3.org/2000/svg">
    <path
        d="M36.5 65V67H43.3778C45.957 67 47.3339 70.0394 45.6331 71.9783L27.2553 92.929C26.0603 94.2912 23.9397 94.2912 22.7447 92.929L4.36694 71.9783C2.66609 70.0393 4.04299 67 6.62222 67H12.5V35.5C12.5 33.8431 13.8431 32.5 15.5 32.5H33.5C35.1569 32.5 36.5 33.8431 36.5 35.5V37"
        stroke="#259799" stroke-width="3" stroke-linecap="round" />
    <path
        d="M31.3877 56.2813C31.6766 55.3715 32.4166 54.6079 33.3712 54.6079C34.4 54.6079 35.2403 55.4774 35.0059 56.4791C34.8415 57.1817 34.6026 57.8365 34.2891 58.4436C33.7204 59.5605 32.9234 60.4324 31.8981 61.0595C30.8807 61.6865 29.6552 62 28.2213 62C27.0999 62 26.0946 61.7649 25.2054 61.2946C24.3163 60.8145 23.5553 60.1287 22.9225 59.2371C22.2977 58.3456 21.8211 57.2679 21.4926 56.004C21.1642 54.7401 21 53.3244 21 51.7568V50.2725C21 48.705 21.1682 47.2892 21.5047 46.0254C21.8491 44.7517 22.3377 43.6691 22.9705 42.7776C23.6114 41.886 24.3764 41.2002 25.2655 40.7201C26.1547 40.24 27.1479 40 28.2453 40C29.7032 40 30.9328 40.3233 31.9341 40.9699C32.9434 41.6166 33.7244 42.5081 34.2771 43.6446C34.5817 44.262 34.8201 44.9256 34.9924 45.6355C35.2357 46.6385 34.4049 47.5244 33.3728 47.5244C32.4264 47.5244 31.6885 46.7668 31.436 45.8548C31.3852 45.6715 31.327 45.4982 31.2612 45.3347C31.0209 44.7272 30.6565 44.2717 30.1678 43.9679C29.6872 43.6544 29.0464 43.4977 28.2453 43.4977C27.6446 43.4977 27.1199 43.6348 26.6713 43.9092C26.2227 44.1835 25.8463 44.5999 25.5419 45.1583C25.2375 45.7168 25.0092 46.4222 24.857 47.2745C24.7128 48.1171 24.6407 49.1067 24.6407 50.2432V51.7568C24.6407 52.8639 24.7088 53.8388 24.845 54.6814C24.9811 55.5141 25.1894 56.2195 25.4698 56.7976C25.7581 57.3658 26.1266 57.7969 26.5752 58.0908C27.0318 58.375 27.5805 58.517 28.2213 58.517C28.9743 58.517 29.5951 58.3701 30.0837 58.0762C30.5724 57.7822 30.9448 57.3462 31.2012 56.7682C31.2709 56.6158 31.333 56.4535 31.3877 56.2813Z"
        fill="#259799" />
    <path
        d="M52 50.5077V51.5217C52 53.1481 51.8198 54.6079 51.4593 55.9011C51.0988 57.1944 50.5902 58.2966 49.9333 59.2077C49.2765 60.1091 48.4915 60.7998 47.5783 61.2799C46.6731 61.76 45.6678 62 44.5624 62C43.465 62 42.4597 61.76 41.5465 61.2799C40.6413 60.7998 39.8563 60.1091 39.1915 59.2077C38.5266 58.2966 38.0099 57.1944 37.6415 55.9011C37.281 54.6079 37.1008 53.1481 37.1008 51.5217V50.5077C37.1008 48.8715 37.281 47.4117 37.6415 46.1283C38.0019 44.835 38.5106 43.7328 39.1674 42.8216C39.8323 41.9105 40.6173 41.2149 41.5225 40.7348C42.4357 40.2547 43.441 40.0147 44.5384 40.0147C45.6438 40.0147 46.6491 40.2547 47.5543 40.7348C48.4674 41.2149 49.2525 41.9105 49.9093 42.8216C50.5742 43.7328 51.0868 44.835 51.4473 46.1283C51.8158 47.4117 52 48.8715 52 50.5077ZM48.3593 51.5217V50.4783C48.3593 49.3418 48.2752 48.3425 48.107 47.4803C47.9388 46.6181 47.6904 45.8931 47.362 45.3053C47.0336 44.7174 46.6331 44.2766 46.1605 43.9826C45.6879 43.6789 45.1472 43.5271 44.5384 43.5271C43.9296 43.5271 43.3889 43.6789 42.9163 43.9826C42.4517 44.2766 42.0552 44.7174 41.7267 45.3053C41.4063 45.8931 41.162 46.6181 40.9938 47.4803C40.8256 48.3425 40.7415 49.3418 40.7415 50.4783V51.5217C40.7415 52.6484 40.8256 53.6477 40.9938 54.5197C41.162 55.3819 41.4103 56.1118 41.7388 56.7094C42.0672 57.2973 42.4677 57.743 42.9403 58.0468C43.4129 58.3505 43.9536 58.5023 44.5624 58.5023C45.1712 58.5023 45.7119 58.3505 46.1845 58.0468C46.6571 57.743 47.0536 57.2973 47.374 56.7094C47.6944 56.1118 47.9388 55.3819 48.107 54.5197C48.2752 53.6477 48.3593 52.6484 48.3593 51.5217Z"
        fill="#259799" />
    <path
        d="M63.8575 63.715C64.4885 63.715 65 64.2265 65 64.8575C65 65.4885 64.4885 66 63.8575 66H57.6958C56.8999 66 56.2546 65.3547 56.2546 64.5588C56.2546 64.2296 56.3673 63.9104 56.5739 63.6541L60.3902 58.9215C60.8059 58.3866 61.1337 57.916 61.3737 57.5098C61.6137 57.0968 61.7863 56.7278 61.8917 56.4028C62.0029 56.0711 62.0585 55.7563 62.0585 55.4584C62.0585 55.0115 61.9941 54.629 61.8654 54.3108C61.7366 53.9858 61.5463 53.7353 61.2946 53.5592C61.0488 53.3832 60.7444 53.2952 60.3815 53.2952C59.9951 53.2952 59.6615 53.4035 59.3805 53.6202C59.1054 53.8368 58.8946 54.1381 58.7483 54.524C58.7409 54.5443 58.7337 54.5647 58.7267 54.5853C58.501 55.2486 57.9695 55.8341 57.2688 55.8341C56.5681 55.8341 55.9816 55.2589 56.1349 54.5751C56.2256 54.1703 56.3621 53.7843 56.5444 53.4171C56.9073 52.6791 57.4195 52.0934 58.081 51.6601C58.7424 51.22 59.5268 51 60.4341 51C61.3298 51 62.0849 51.1693 62.6995 51.5078C63.32 51.8395 63.7883 52.3202 64.1044 52.9499C64.4263 53.5728 64.5873 54.3175 64.5873 55.1842C64.5873 55.6716 64.52 56.149 64.3854 56.6161C64.2507 57.0765 64.0576 57.5369 63.8059 57.9973C63.56 58.4509 63.2615 58.9113 62.9102 59.3785C62.559 59.8456 62.1698 60.3297 61.7424 60.8307L59.521 63.715H63.8575Z"
        fill="#259799" />
    <path d="M56 39C50.3333 33 44.8 17.2 68 2C71.5 10 74 28.6 56 39Z" stroke="#259799" stroke-width="3"
        stroke-linejoin="round" />
    <path
        d="M72.4998 47.4996C77.2543 45.7118 82.2878 40.3381 83.9999 38.4996C79.0789 35.2597 74.5 36 69.5 37C63.914 38.4552 61.1157 41.8789 60.0594 44.3401C64.2206 47.4274 68.3808 49.0485 72.4998 47.4996Z"
        stroke="#259799" stroke-width="3" stroke-linejoin="round" />
    <path d="M56 39C56 35.5 57.1 27.2 61.5 22" stroke="#259799" stroke-width="3" stroke-linecap="round"
        stroke-linejoin="round" />
    <path d="M60.5 44C62.8333 44.6667 68.3 45.3 71.5 42.5" stroke="#259799" stroke-width="3" stroke-linecap="round"
        stroke-linejoin="round" />
</svg>